<svg version="1" xmlns="http://www.w3.org/2000/svg" width="682.667" height="682.667" viewBox="0 0 512.000000 512.000000"><path d="M162 79.1c-44.8 5.5-81.7 37-93.5 79.9-2.1 7.5-2.8 12.6-3.2 24-.2 8-.1 17 .4 20l.8 5.5-10 3.6c-14.1 5.1-21.6 9.8-32 20.3-11.7 11.9-17.1 21.2-22.2 38.2C.7 276 .5 283.4.2 352.7L-.1 429H62v-47h14v47h61v-56h20v3.2c0 6.8 3.9 22 7.6 29.5 9.6 20.1 29.5 30.5 52.8 27.5 12.9-1.6 21.3-5.9 30-15.3l6.6-7.1 6.6 7.1c14.3 15.5 34.8 19.9 55.9 12 17.8-6.6 31.1-25.6 34.6-48.9l1.1-8H371v56h61v-55.8l8-1.1c19.1-2.8 35.2-11.2 48.6-25.2 9.7-10.3 14.5-18.1 18.8-31.1 11.2-33.2-1.5-72.1-29.9-92.3-12.1-8.6-22.5-12.5-39.7-15-18.5-2.6-16.4-1.1-17.1-12.3-2.5-39.9-28.6-71.4-69.4-83.9-7.9-2.4-10.4-2.7-24.3-2.7-13.3-.1-16.6.2-23.4 2.2-9.5 2.7-20.6 7.8-29.3 13.3-3.6 2.2-6.6 3.9-6.7 3.7-2.4-4-10.6-13.4-16.9-19.5-20-19.1-43.3-29-72.2-30.6-4.9-.3-12.4-.1-16.5.4zM89.9 227.5c14.1 3.4 24.7 11.9 30.6 24.8 7 15.4 6.8 13.2 7.2 94.4l.4 73.3h-43l-.3-66.8c-.3-66.5-.3-66.7-2.5-70.8-5.5-10.2-20.3-9.7-26.4 1-2.3 3.9-2.4 5.2-2.7 24.8l-.3 20.8H68v44H53v47H9v-62.3c0-61.9.6-75.4 3.6-87.1 5.5-21.7 20.8-37.6 41.4-43 7.5-2 27.7-2 35.9-.1zm367.6 0c9.1 2.4 15.3 6.3 24 15 13.8 13.7 19.5 28.1 19.5 48.9 0 13.5-1.8 22.5-6.4 31.9-8.7 18-25 27.7-46.3 27.7H441v-42.7l3.9-1.2c8.2-2.4 13-10.7 11.7-20.1-.7-4.9-2.7-8.2-7-11.4-3.9-2.9-14.3-2.9-18.2 0-4.3 3.2-6.3 6.5-7.4 12.3-.6 3.3-1 30.3-1 68.7V420h-43.1l.3-69.8c.4-68 .4-69.9 2.6-77.5 4.9-17.8 15.7-31.6 30.9-39.5 4.5-2.3 10.5-4.8 13.4-5.6 7.2-2 23-2 30.4-.1zM209 296.7c0 42.7.4 68.1 1 70.5 2.8 9.8 15.3 10.7 20.3 1.4 2.2-4.1 2.2-4.5 2.5-71.4l.3-67.2H276v66.7c0 42.7.4 68.1 1 70.5 2.9 10.5 16.1 10.4 20.9-.1 1.4-3.2 1.6-11.2 1.9-70.4l.3-66.7h43l-.3 76.2-.3 76.3-2.8 8.2c-8.1 24.1-27.8 37.2-50.3 33.4-13-2.2-22.1-9.4-30.5-24l-4.5-8-3.9 6.7c-5.6 9.7-16.6 20.4-23.6 23-12 4.4-28.6 3.5-38.4-2.2-8.9-5.2-16.2-15.9-20.2-29.3-1.6-5.2-1.8-13.2-2.1-83.1l-.3-77.2H209v66.7z"/></svg>