<svg xmlns="http://www.w3.org/2000/svg" viewBox="0 0 2400 1303.5"><defs><style>.a{fill:#042224;}.b{fill:#13a2ad;}.c{fill:#899698;}.d{fill:#7adff7;}.e{fill:#13a1ad;}.f{fill:#0d7982;}.g{fill:#0d7881;}.h{fill:#e4f7fe;}.i{fill:#14a2ae;}.j{fill:#d0f1fe;}.k{fill:#68d0df;}.l{fill:#50c48d;}.m{fill:#98e188;}.n{fill:#030404;}.o{fill:#a5c3d0;}.p{fill:#17a5b0;}.q{fill:#b9eecf;}.r{fill:#095157;}.s{fill:#b0ecfc;}.t{fill:#128088;}.u{fill:#65b7c3;}.v{fill:#97bf36;}.w{fill:#9edec8;}</style></defs><title>bg</title><path class="a" d="M1457,655v450c-1.7.9-3.6.5-5.4.5H-937.6c-1.8,0-3.7.4-5.4-.5V861l1.1-.9a71.6,71.6,0,0,1,8.9-3,9.6,9.6,0,0,0,6.4-5.7c6.5-10.6,12.3-21.5,18.3-32.6-4.8-2.6-9.8.1-13.7-2.8-.2-3.1,2.1-4.5,3.7-6.2,6.7-6.9,13.9-13.4,20-21.6-2.5-1.4-5-1.3-7.3-1.8-4.1-.8-5.2-2.6-2.9-5.8A254.7,254.7,0,0,1-889.2,757c2.1-2.3,4.5-2.1,6.2.6,4.9,7.6,10.1,14.9,14.5,22.8,1.7,3,.3,4.6-2.7,5.5s-5.9.1-9.8,1.2c4.1,4.6,8.2,8.6,11.8,13s4.7,5.7,7.1,8.4,1.5,4.2-1.5,5.3-6.2,1.4-8.9,3c-.3,2.5,1.4,3.9,2.5,5.4,4.8,6.6,9.9,13,14.5,19.8,3.3,4.8,2.8,6.3-2.7,8.1s-8.3,2.7-12.4,3.9c-2.1.5-4.3.8-6.2,3.4a25.8,25.8,0,0,0,13.2,6.8c1.6.4,2.4-1.4,3.2-2.7,2.4-4.1,5-8.3,7.2-12.6,3.1-6.2,8-9.3,14.5-11l39.2-10.3c10.1-2.7,20.3-5.3,30.4-8.1,3-.8,4.7-2.3,4.6-5.5-.3-9,.6-18,1-27,.3-6.3-.1-6.5-6.3-6.5h-17c-5.8-.1-6.5-1.2-4.2-6.6,5-11.6,10.3-23.1,15.3-34.7.8-1.8,2-3.5,1.5-5.9-2.4-1.3-5.1-.5-7.7-.8s-4.5-.1-4.9-3.1,2-4.5,3.5-6.5c6.1-7.8,12.1-15.8,18.3-23.6.8-1,1.9-2,1.5-3.9-2.7-1.3-5.9-1.2-9-2s-3.9-2.1-2.4-4.7c6.7-11.3,13.6-22.5,21.6-32.9a2.4,2.4,0,0,1,2-.9c2.9,1.7,4,5,5.5,7.8,4.2,7.6,8,15.4,11.7,23.2,2.5,5.2,1.6,6.3-4.2,6.6-2.6.1-5.3-.5-7.7.6-.4,2.2,1.1,3.3,2,4.6,5,7.5,10.4,14.7,15.5,22.1,3.6,5.1,3.2,6.7-2.6,8.6-8.6,2.9-9.1,2.3-3.8,10.9s9.8,16.2,14.6,24.4c3.2,5.5,2.7,6.8-3.2,9.3s-11.3,4-16.8,6.5c-1.6.7-1.9,2.2-2,3.7-.2,8.8-.3,17.6.1,26.4a2.6,2.6,0,0,0,1.2,2.1c2.8.4,5.7-1.1,8.7-1.7,7.3-1.6,14.5-3.9,21.8-5.6a15.2,15.2,0,0,0,8.9-6c6-7.9,11.7-16.2,17.8-24.1,1.3-1.7,2.5-4,5.1-3.4s2.4,2.9,3,4.8c2.5,8.4,5.2,16.9,7.4,25.4,1,3.9,3.1,5.9,7.1,6.5,7.9,1,15.7,2.6,23.2,3.9,2-1.5,1.4-3.1,1.2-4.5-.9-6.8-1.9-13.6-2.6-20.4-.5-4-2.3-4.9-6-4.2-5.3.9-10.5,2-15.8,2.8-7,1-8.8-.7-7-7.5,3.1-11.4,5.8-22.9,8.9-34.3.6-2.2,1.8-4.4.6-7-3.7-.6-7.6,1-11.3-.3a3.8,3.8,0,0,1-1.3-.9c-1.2-3.3,1-5.7,2.4-8.3l13.5-25c.8-1.4,2.1-2.7,1.7-4.7-2.7-1.3-5.6-.5-8.3-.7-4.5-.5-5.6-1.8-4-5.8,4.3-10.7,8.8-21.3,13.6-31.7,1.9-4,3.8-4.2,6.7-.7,6.8,8.3,13.4,16.6,19.4,25.5,2.6,3.9,1.8,5.5-2.8,6.6-2.8.6-5.9.5-8.5,2.1,0,2.4,1.9,3.3,3.1,4.5l18.7,18.8c4.4,4.5,4.1,5.9-1.3,8.9-7.8,4.2-7.7,4.3-1.7,11.2s12.6,14.7,18.9,22c3.8,4.3,3.4,6-1.4,8.9s-9.1,5.5-13.9,7.9c-3,1.6-4.3,3.7-3.6,7.3s2,10.1,2.8,15.2,1.6,9.5,2.3,14.3c.5,2.8,1.9,4.5,4.7,5a307.3,307.3,0,0,0,40.5,5.2c2.8.1,5.2-.3,6.9-3.1,3-5.4,2.6-7-3.2-9.3l-14.4-5.5c-6.7-2.7-7-4-1.8-9.2l26.1-26.2c1.3-1.2,2.8-2.3,3.3-4.2-1.6-2.2-4.2-2.7-6.3-4s-4.4-1.5-4.4-4.2,2.3-3.1,4-4c9.5-5.5,18.9-11.2,28.2-16.9,1.1-.6,3.9-.7,2-3.3a62.6,62.6,0,0,0-5.5-3.4c-4.7-2.8-4.9-4.9-.6-8.1,6.6-4.9,13.1-9.7,19.8-14.4,2.6-1.8,5.1-3.8,7.8-5.4,4.3-2.6,5.8-2.1,6.6,3s1.1,9.3,1.4,13.9a59.9,59.9,0,0,0,1,7.4c1.3,4,1,8.2,1.4,12.4s-1.2,3.9-4,3.4-6.2-2.2-9.4-2.8c-1.3,1.9-.3,3.4.1,4.9,2,8.5,4.2,16.8,6.2,25.3,1.3,5.7,0,7.3-5.8,7.6-2.6.1-5.3-.4-7.6.5s-.5,3.5-.3,5.1c1.7,10.1,3.4,20.1,5,30.1,1,6.6-.3,8.1-7,8.2h-15c-1.8,0-4.1-.4-4.8,2.3s2.1,1.6,3.3,1.7c23.8,1.4,47.5,3.6,71.2,5.2,12.3.8,24.6,1.8,36.8,3a34.5,34.5,0,0,1,11.5,3.2c25.7,12.3,51.7,24.1,77.2,36.7,4.8,2.4,8.5,2.2,12.9-.7,23.6-15,47.5-29.8,71.1-44.7,8.1-5.1,17.2-7.1,26.3-9.3,30.1-7.3,60-15.4,90-23.3,4.7-1.3,7.6-3.6,8.4-8.5.5-3.1,2-6,1.8-9a2.4,2.4,0,0,0-2-1.7c-3.8-.8-3.7-3.1-2.4-6s2.8-4.9,4.1-7.5,1.9-3.1,1.9-5c-5.4-4-5.4-4-2.5-10.7a81.4,81.4,0,0,1,4.8-10.4c2.2-3.7,3.4-3.8,6.3-.6a79.2,79.2,0,0,1,7.1,9.1c3.6,5.3,3.5,5.8-1.7,9.4,1.5,3.5,4.7,5.5,7.1,8.1s4.3,5,.7,8a2.8,2.8,0,0,0-.9,2.2c.3,4.3,8.7,10.4,12.9,9.1,8.3-2.5,16.6-4.9,25.1-7.9l-.7.2c-10.3,1.2-10.7.7-8.2-9.6,1-4.3,2.7-8.5,3-12.9-6.5-3.8-6.4-3.7-3-10.9,1.5-3.1,3.7-5.9,4.7-9.3-5.7-3.7-5.7-3.9-3.1-10.3a89.1,89.1,0,0,1,5-10.3c2.4-4.2,4.1-4.3,7.1-.7s4.3,5.9,6.5,8.9c3.7,5,3.7,5.1-1.6,9.1,1.2,2.8,3.7,4.5,5.7,6.6,5.1,5.3,5.1,5.6.4,11.3,2.6,4.5,6.6,8.1,9.7,12.3s3,5.7-1.2,7.6c5.1-2.2,10.8-3,16.1-6.5-2.8-1.9-5.4-1.1-7.8-.9-5.2.4-6.2-.7-4.7-5.5s3.4-9.1,5.2-13.6c1.1-2.5,1.7-4.4-1.6-6.1s-1.6-4.3-.4-6.6,5.4-6.8,7-10.8c-4.8-5-4.8-5.1-1.2-11.3,1.6-2.9,3.3-5.8,5.2-8.6,3.1-4.8,5.1-4.7,8.2.4,1.7,2.9,3.4,5.8,4.9,8.7,2.6,5,2.3,5.9-3,8.8,1.6,2.7,3.7,5,5.5,7.5,4.5,6.1,4.5,6.1-.8,11.1,1.2,4.1,4,7.4,6.3,11.1,1.2,2.1,3,4,2.5,6.8-.3.6-.5,1.2-1.2,1.3s.8-.7,1.3-1,3.9-1.9,5.8-2.9,3-1.9,2.9-3.8-2.3-2.1-3.8-2.5-2.6-.4-3.9-.7c-4.8-1.2-5.6-2.8-3.1-7s5.5-7.9,8.3-11.9c.7-1.1,1.6-2.2,1.6-3.6-5-4.6-5-5.5.4-10.2,2.9-2.5,6.1-4.6,8.3-7.7-3.3-5.1-3.3-6,.7-10.3a98.8,98.8,0,0,1,9.2-9.1c2.5-2.3,4.5-1.7,5.7,1.4s2.6,8.3,3.7,12.5c1.4,5.8,1.2,6-4.8,7.2.4,3.6,2.3,6.6,3.6,9.8s2.1,6.4-2.3,8.2c-2.7,1.1-1.6,3.3-1.1,5.2,2.5,8.7,3.3,9,10.9,3.9a71.4,71.4,0,0,0,6.2-5c3.8-3.1,7.6-3.4,11.9-.8,6.9,4.2,13.9,8,21,11.5,4.3-6.1,3.1-10.1-3.7-10.3s-10.2-1.3-4.6-10.3c1.5-2.6,2.8-5.3,4.2-7.9s2.9-5.7-1.7-7.6c-2.8-1.2-1.3-3.3,0-4.8s5.4-5.5,7.6-8.6c.8-1.1,1.9-2,2-3.4-4.5-4.6-4.6-4.9-.3-10.2,2.3-2.9,4.2-6,6.7-8.7s5.2-3.4,7.4.9,2.6,5.7,3.8,8.7c2.3,5.4,2.1,5.9-2.8,9.5.7,3.6,3.2,6.4,5,9.5s3,6.1-1.4,8.3c-2.2,1.1-1.7,2.9-.8,4.6,1.8,3.8,3.8,7.5,5.5,11.3s1.6,5.4-2.8,7l-1.9.6c-6.9,2.1-6,2.3-7.2,9.3-1.6,9.2,3.1,12.8,10.1,16.6,26,13.9,51.6,28.6,77.4,42.9a50.5,50.5,0,0,1,11,8.5c14.7,14.8,29.9,29.2,44.1,44.3,20.7,22.2,43.1,42.7,62.3,66.2,3.3,4,6.4,5,11.3,3a121.8,121.8,0,0,1,17.1-5.5c4.4-1,6.3-3.3,6.1-8-.2-10.9.2-21.7-.1-32.5-.1-5.1,1.8-8.3,6-11.1,34.1-22.4,67.7-45.6,101.8-68.1a224.1,224.1,0,0,0,19.4-14.2c1.9-1.6,3.9-2.8,2.4-6.1s1.2-4,2.8-5.4c5.9-5.6,10.8-12.3,16.7-17.9a6,6,0,0,0,2.3-3.3c-1.6-2.3-4.5-1.9-6.7-2.8s-3.5-3-1.7-5.5a306.6,306.6,0,0,1,19.4-24.8c2.4-2.8,4.5-1.6,5.7,1.2,2.1,4.7,4.5,9.3,6.6,14,.7,1.6,1,3.6,3,4.3,4.1-2.9,16-23.6,16.8-29.6-3-1.7-7.3-.4-10.5-4,5.8-9.8,15.3-16.7,22-26.1-1.4-2.2-4-1.9-6.1-2.7s-3.8-2.7-2.1-5.3a209,209,0,0,1,19.2-24.9c2-2.3,4.2-1.8,5.6.9,4.4,8.6,8.1,17.5,12.1,26.3,1.3,2.9-.2,4.4-3.1,4.8s-5-.3-7.7.1c0,2.2,1.4,3.7,2.5,5.2a128,128,0,0,1,6.9,11.1c2.9,5.8,6.7,8.5,13.5,6a20.1,20.1,0,0,1,10.9-.4,16,16,0,0,0,4.4.3c2.3,0,3.4-1.1,3.6-3.3s-1.5-2.9-3.3-2.8c-4.7.2-9.3-1-13.9-1.1-7.3-.2-8.1-1.6-4.9-7.9,4.1-8,8.4-15.9,12.9-23.8,1-1.8,2.2-3.7,2.4-6.1-3-2.6-7.6-.9-11.1-4.3,6-9.9,15.5-16.8,22.2-26.1-1.2-2.2-3.7-1.9-5.6-2.5s-4.6-2.9-2.5-5.9a261.7,261.7,0,0,1,19-24.4c2.2-2.4,4.6-2.2,6,.8,4.1,8.6,8.2,17.2,11.6,26,1.4,3.5.2,4.8-3.6,5.1-2.3.2-4.6-1.2-7.2,0,1,3.2,3.2,5.5,4.8,8.1s3.8,6.3,5.8,9.3c5.9,8.7,5.9,8.8-3.7,12.7-3.1,1.3-2.4,3-1.3,5.1,3.7,7.3,7.9,14.3,11.4,21.7s2.9,8-4.5,10.1l-10.5,3c-2.1.5-4.3,1.2-3.9,4.1s3.1,1.2,4.7,1c10.4-1.3,20.9-1.2,31.3-2.7,7.5-1.1,12.8,1.2,17.3,7.8,18.3,27.2,37.4,53.9,56.1,80.9,2.5,3.6,4.6,7.8,10.2,8.6,1.3-6.9,1.7-13.6,2.4-20.4.5-5.1.9-10.2,1.5-15.3s-1.4-5.6-4.8-5.6c-7.4,0-14.6-1.3-22-1.3s-8.5-1.9-5-8.4c6.5-12.4,13.4-24.5,20.1-36.8,1.4-2.5,3-4.8,3.6-7.9-5.2-2.8-12-.5-17.7-5,11.1-12.7,22.5-24.6,33.9-37.1-3.3-2.1-6.7-2.3-9.8-3.1-6.7-1.8-7.2-2.9-3-8.6s10.3-13.6,15.7-20.2c3.5-4.4,6.6-9.2,10.6-13.2s4.3-3.1,6.2.9c5.9,12,11.1,24.2,16.5,36.4,1.7,3.9.5,5.5-3.8,6s-7.6-.6-11.3.7c-.2,2.8,1.5,4.5,2.8,6.4,5.3,7.9,10.2,16,15.5,23.9s4.3,8.1-3.7,10.5c-2.8.9-5.9,1.1-8.4,2.9-.7,2.1.7,3.6,1.4,5.2,5.5,11.3,11.4,22.3,17.5,33.2,3.4,6.1,2.6,8-3.9,10.1s-12.5,3.8-18.8,5.4c-4.1,1.1-5.8,3.6-5.9,7.5-.3,11.7-1.7,23.2-2.1,34.9-.1,3.4-.2,6.7-4.3,8.1,21.4,8.2,42.8,15.9,64.2,23.7,4.1,1.5,6.7.9,8.6-3,3.5-7.2,7.8-13.9,11.3-21.4-5.5-3.1-12.2-.7-18.2-5,10.8-13,23.2-24.3,33.9-37.6-4-1.9-7.9-2.1-11.5-3.1s-5.1-2.7-2.4-6.3c8.7-11.6,17.6-23.1,26.7-34.3,3.3-4,5.7-3.7,7.8.9,5.3,11.9,11,23.6,15.9,35.7,2.1,5.2.7,7-5.2,6.3-3.4-.3-6.8-1.3-10.2,0-.3,2.1,1.1,3.3,1.9,4.7,5.8,9.1,11.6,18.3,17.5,27.3,3.4,5.2,2.9,6.5-3.1,8.5-2.1.6-4.2,1.2-6.3,1.6-3.7.8-4.5,2.7-2.8,6.1,4.4,9,9.2,17.7,14.1,26.5a89.6,89.6,0,0,1,4.9,9.8c1.6,4,.9,5.9-3.2,7.3-6.3,2.2-12.8,3.8-19.2,5.6s-7.1,2.8-7.3,9.1c-.2,9.6-.9,19.2-1.8,28.9-.3,3.8,2,5.3,4.9,6.6l47.3,20.5c7.3,3.1,14.6,6.5,22,9.6a5.6,5.6,0,0,0,4,.3,60.2,60.2,0,0,0,1.7-14.3c0-2.6-1.9-2.5-3.8-2.8-7.9-1.2-16-.9-23.9-1.9s-7.7-1.5-4.2-7.9c6.6-12.5,13.4-24.9,20.3-37.3,1.3-2.3,3.1-4.4,3.1-7.4-3-2.2-6.7-1.5-10-2.3s-4.4.1-5.3-2.1.8-4.5,2.4-6.1c5.6-5.3,10.1-11.5,15.7-16.8s8.8-9.8,13.5-15c-3.2-2.6-6.7-2.3-9.8-3.2-5.7-1.7-6.5-3.4-3.1-8,8.3-11.1,16.7-22,25.5-32.7,3.6-4.2,5.7-3.9,8,1,4.4,9.3,8.7,18.6,13.4,28.8a56.3,56.3,0,0,0,2.3-10c.6-4.8,3.2-7.2,7.9-8.2,10.6-2.4,21-5.2,31.6-7.6,7.9-1.8,8-1.9,9-10.1s1.8-18.9,3.1-28.3c.5-3.5-.9-5-4.4-4.9-7.1.4-14.2-1.5-21.4-1a13.6,13.6,0,0,1-4-.4c-4.1-1.1-5-2.8-3.1-6.5,6.4-12.1,12.8-24.2,19.5-36,1.9-3.3,4-6.5,4.9-10.5-3.7-2.1-7.9-1.5-11.7-2.5-1.6-.4-3.6-.2-4.3-2s.8-3.4,2-4.7c4.3-4.7,8.4-9.5,12.6-14.2,5.7-6.3,12-12,17.7-18.9-3.4-2.2-7-2.1-10.3-3-6-1.7-6.7-3.4-3-8.2,8.3-10.8,16.8-21.5,25.3-32.3,4.3-5.4,5.9-5,8.8,1.2,5.1,10.9,9.9,21.9,14.8,32.9,1,2.3,3.3,4.7,1.1,7.3s-5.2,1.1-8,.7l-1.4-.5c-.6-.7-1.2-1-1.8-.1a11.5,11.5,0,0,1-5.8.5c-.4-.2-.5,0-.5.4l.3.3c2.9,3.9,5.8,7.7,7.8,12.2,3.8,6.2,7.8,12.4,11.7,18.5s3,7.7-3.5,9.5c-2.9.8-5.9,1.3-8.3,2.8-.5,2.3.8,3.5,1.8,4.7,6,8.2,12.6,16,18.8,24,2.3,3,4.5,3.4,7.7,1.5l37.3-21.3c3.1-1.7,3.7-4.4,3.7-7.6-.1-14.3-.1-28.6-.1-43-.5-4.6,1.9-6.5,6.2-7.3,6.6-1.3,13.2-3,19.9-4,11.9-2.8,24-4.8,35.9-7.7,5.8-1.3,8.9,2.4,12.5,5.5,5.5,7.4,13.2,12.5,20.1,18.5,19,16.7,38.1,33.2,57.2,49.7,5.2,4.5,10.5,8.8,15.5,13.4,2.7,2.5,4.9,2.8,7.6-.1s8.8-7.1,12.4-11.6a11.3,11.3,0,0,1,2.5-2.4c9.8-5.3,9.8-13.8,7.5-23.5-6.9-1.2-13.9,1.3-20.9.9a21.2,21.2,0,0,1-8.3.8c-4.1-.4-5.3-2-4.1-5.9s3.2-9,4.7-13.5c4.2-11.7,8.9-23.3,12.8-35.3-5.8-2.8-11.8.4-17.7-3,7.5-14.7,18.4-27.1,26.8-41.3-3.1-2.3-6.3-1.8-9.4-1.9-6.9-.3-8-2.1-4.8-8.4,4.1-8.1,8.9-16,13-24.1a90.4,90.4,0,0,1,5.9-11.6c3.1-4.6,4.5-4.8,7.5-.3,6.3,9.4,13,18.5,18.5,28.4.9,2,2.1,3.8,3.1,5.7s.6,4.4-2.4,5.2a42.7,42.7,0,0,1-7.9,1c-1.8,0-3.7-.3-5.5,1.2,1.2,3.2,3.8,5.4,5.9,7.8l19,21.2c4.1,4.6,3.8,6.1-1.7,8.8-3.1,1.6-6.6,2.2-9.1,4.4a2.6,2.6,0,0,0,1,2.9c11,9.7,21.2,20.3,32.5,29.7,1.3,1.1,2.6,2.1,4.4.8s3.8-1,5.7-1.6c3.9-1.3,7-.3,9.9,2.6,6.2,6.1,12.9,11.5,18.9,17.8A28,28,0,0,1,1457,655Z" transform="translate(943 197.5)"/><path class="b" d="M1377.9,542.1l-21.4-32.4L1348,525c-14,14.7-27,30.3-40.8,45.2-1.6,1.6-3,3.6-5.4,4.2-3-1.1-3.2-4-4.4-6.3s-1.2-4.2-3-5.6-2.6,1.3-3.6,2.4c-11.4,13.8-23.2,27.3-34.6,41.1-6.5,7.9-14.7,10-24.4,8.4-4.6-5.5-9.9-6.7-17-4.7-10.1,2.9-20.5,4.3-30.7,6.4-3.3.9-3.2-1.5-3.1-3.5,1.1-14.2,1.8-28.5,3.2-42.7.4-3.5.2-7,.5-10.5s-1.2-4-3.1-5.3c-5.1-3.4-10.3-6.8-15.3-10.4-11-8.2-21.1-17.2-28-29.4-4.2-7.4-11-12.4-17.9-17.2-17.3-12.2-35.7-22.7-54.2-32.9-2.4-1.4-5.3-2.3-6.4-5.3,2.8-9.2,5.6-18.5,8.3-27.8.8-6.1.3-12.2.4-18.4.3-16.6-.4-33.2.3-49.9l29.1-15.9a67.5,67.5,0,0,1,16.2,0c2.8,1.6,6.5,2.4,8.1,4.8,11.2,16.4,21.9,33.2,33,49.7a14.6,14.6,0,0,0,7.1,5.4c15.4,5.3,30.9,10,46.2,15.5,3.7,1.3,7.1,4.5,9.7,7.6a74.3,74.3,0,0,1,9.6,15.1c8.1,16.9,21.6,27.7,38.4,35,1.3.6,4.2.2,5-.8,28.9-38.1,58-76.1,86.3-114.7,7.4-10.1,10.8-23.5,18.9-32.7,6.7-7.6,17.6-11.6,27-16.3,1.7-.8,6.6,1.7,8.1,3.9,14.6,22.9,28.9,46.1,43.3,69.2a25,25,0,0,0,2.2,2.4V655c-7.1-6.7-14.8-12.8-21.1-20.2s-11-5.8-17.5-3.4c-4,.7-3.9-2.6-4.2-4.8-1.1-7.3-1.9-14.8-2.6-22.2-1-10.4-2.5-20.8-3.3-31.2-.5-5.5-4.3-8.8-8.1-12C1392.8,554.8,1385.5,548.2,1377.9,542.1Z" transform="translate(943 197.5)"/><path class="c" d="M-943,1105H1457c-1.3.3-2.7,1-4,1H-939C-940.3,1106-941.7,1105.3-943,1105Z" transform="translate(943 197.5)"/><path class="d" d="M-942.1,860.9h-.9V541h1.1a37.4,37.4,0,0,1,1.2,4.8c.7,2.2.5,4.6.5,6.9q0,149.3,0,298.6C-940.2,854.7-939.5,858.2-942.1,860.9Z" transform="translate(943 197.5)"/><path class="e" d="M-625.1,584c4.3-38.1,23.7-66.9,54-89.1,1,1.3.3,2.5-.2,3.7A173.9,173.9,0,0,1-582,518c-.2.4-.8.2-.9.7s.7-.5,1.1-.7c15.7-9.8,31.9-18.6,47.8-28,12.5-7.4,24.9-14.7,37.6-21.8,3-1.7,4.1-4.1,2.7-7-4.3-8.8-1-15,5.8-20.9,12.6-10.8,23.9-23.1,35.9-34.6,5.4-5.3,9-11,9.6-18.6a8.7,8.7,0,0,1,1.7-5.1c10.6-10.2,21.4-20.3,30.9-31.7a5.2,5.2,0,0,1,1.1-1,4.2,4.2,0,0,1,1.4-.9c4.4-1.6,8.8-1.1,13.3-.5,2.3.3,4.5.9,6.8,1.2,5.9.9,6.1.8,6.8-5.2,1.5-12.7,2.9-25.4,3.8-38.2a8.7,8.7,0,0,1,1.2-4.7,2.8,2.8,0,0,1,1.4-1c2.7-.9,5.3-.1,7.9.4,15,2.7,30.1,5.2,45.5,5a37.5,37.5,0,0,0,14.1-2.6,31.7,31.7,0,0,1,14.6-2.4c5.7,0,11.4.8,17-.7,21.1-1.9,42.2-1.4,63.4-1.4a436.6,436.6,0,0,1,54.8,3c11.4,1.5,22.7,3.5,33.1,8.9,4,2.1,8.5,3,12.7,4.5,1.8.4,2.8,1.7,3.7,3.2q15.9,26.3,31.6,52.7c1.1,1.7,2.3,3.3,2.5,5.4a3.8,3.8,0,0,1-.1,1.5c-1.2,3.1-3.7,5-6.1,7-6.3,5.2-12.5,10.5-18.9,15.5a27.5,27.5,0,0,0-9.1,12.2c-3.7,10.5-7.6,20.9-11.4,31.4a4.1,4.1,0,0,0-.1,3.3c3.9,1.4,8.2.3,12.4.7,2.6.2,5.4-.7,7.6,1.4-.1,2.1-1.8,2.1-3.3,2.3a16.3,16.3,0,0,1-4.4.2c-13-1.7-24.4,2.7-35.9,8.2-31.6,15.2-63.6,29.8-95.4,44.5-19.2,8.8-38.3,17.9-57.5,26.7a20.8,20.8,0,0,0-9.5,8.6c-8.1,13-16.8,25.6-25.3,38.3a31.3,31.3,0,0,0-5.5,18.3c.1,12.1.5,24.3-.2,36.4-.8,3.1-3.6,4.1-6,5.5l-2,1a5.7,5.7,0,0,1-3.6.8c-7.3-.1-14.2,2.1-21.1,3.6-26.9,6-53.7,11.8-80.5,17.9-6.4,1.5-10.5-.3-14.1-5.3-9.9-13.9-20.4-27.3-30.3-41.1a84.8,84.8,0,0,0-17.7-18.2c-15.7-11.8-31.7-23.2-47.4-35.1-3.4-2.5-6.2-2.7-10-.9-16.6,7.9-33.3,15.4-50.1,22.7C-620.6,584.3-622.7,586-625.1,584Z" transform="translate(943 197.5)"/><path class="f" d="M-336.8,633.2c0-14.2-.4-28.4,0-42.5a22.5,22.5,0,0,1,3.9-11.1c8.8-13.9,16.8-28.6,27.5-40.9,6.5-7.6,16.9-12.4,26.3-16.9,30.6-14.6,61.5-28.6,92.3-42.9,19.5-9,38.9-18.2,58.4-27,2.8-1.3,6.1-1.6,9.2-1.9,6.7-.5,13.4-.6,20.2-.9.4-7,5.1-11.5,9.5-15.9,18.9-19.6,40.4-35.4,66-45.5,20.3-8,40-17.6,59.9-26.4a12.2,12.2,0,0,0,7.3-8.2c1.7-5.9,3.8-11.7,5.8-17.5s2.8-4.8,6.6-2.4,9,5.8,13.3,8.8,4.7,1.3,6.4-1.7c7-12.7,14.1-25.3,21.3-37.9,1.4-2.5.2-5.3,1.7-7.7a3.7,3.7,0,0,1,2-.9,23.4,23.4,0,0,0,5.2-.8,16.1,16.1,0,0,1,3.1,0,17.5,17.5,0,0,0,6,.6,60.2,60.2,0,0,1,15.7,4.5,4,4,0,0,1,2.2,4c5.8,16.5,11.9,32.9,17.2,49.5,2.4,7.6,3.2,15.6,4.7,23.4a65.9,65.9,0,0,0,0,16l47.6,130.5c.3.9.9,1.7,1.3,2.6s2.3,3.2,2.9,5.1c9.3,25.9,18.9,51.6,28.2,77.5a15.9,15.9,0,0,0,8.9,9.6c13.4,6,26.4,12.8,39.5,19.2,1.4.7,2.9,1.1,3.9,2.2s-.6,4.5-1.7,6.5c-15.4,27.2-30.6,54.6-46.1,81.8-10.1,17.8-19.9,35.8-30.2,53.5-1.5,2.7-2.5,7-6,6.7s-3.3-4.9-4.1-7.8c-10.1-35.5-19.5-71.3-29.4-106.9a28.1,28.1,0,0,0-7.4-12.8c-27.3-26.4-55-52.4-82.2-78.8-14.7-14.3-29.7-28.2-44.4-42.5-6.6-6.4-13.4-12.5-19.9-19-3.2-3.1-6.8-4-11.3-3.4-42,5.5-84,10.6-125.9,15.7-7.8.9-15.6,1.8-23.3,2.9s-15.9,6.7-23.5,10.8c-29.2,15.7-58.2,31.7-87.3,47.5-24.6,13.3-48.9,27.2-73.9,39.9C-331.6,632.9-333.9,634.9-336.8,633.2Z" transform="translate(943 197.5)"/><path class="e" d="M287.1,638.1c-3.1-1.2-6.2-2.3-9.2-3.7-10.1-4.8-20-9.9-30.2-14.4-7.6-3.4-12.9-8-15.7-16.5-8.9-26.7-18.7-53-28.2-79.4,17-3.7,34-7,50.8-11.2a32.9,32.9,0,0,0,14.5-7.7c35.8-35.1,70.5-71.3,98.3-113.4,3.9-.7,5,2.7,6.8,4.9,6.4,7.8,4.2,8.6,13.7,1.9,18.6-13.2,36.9-26.8,55.7-39.6,6.2-4.3,8.8-10.8,12.2-16.9,4.9-8.8,9.9-17.7,14.5-26.7,2.6-4.9,4.2-5.1,8.3-1.2a36.9,36.9,0,0,1,5.5,5.7c2.5,3.4,4.9,2.6,7.7.5,9.1-6.9,18.6-13.4,27.8-20.3,4.8-3.6,9.7-7.1,14.4-10.7s7.2-2.8,11-.1,8.1,5.8,12.3,8.5a11.1,11.1,0,0,0,9.5,1.6c11.5-3.3,23.1-6.2,35.5-9.7-10.4-2.9-20.4-4.6-30.1-7.1a182.2,182.2,0,0,0-20.7-3.4c-1.1-.1-4.6.9-2.6-2.7,4.1-.3,8.2.6,12.2-.5,19-7.6,35.3,3.3,52.6,7.8a7.1,7.1,0,0,0,5.4-1.4,117.1,117.1,0,0,0,12.7-12.7c4.9-5.8,10.6-8.9,18.2-7.8,6-1.2,12.1.4,18.1-.8,15.8-.1,15.7-.1,20.9,15,6.4,18.5,12.8,37,19.4,55.4a17.5,17.5,0,0,0,3.7,6.3l134,128.9c.2.2.6.2.9.3,1.4,1.8.5,3.5-.1,5.2-10.8,29.7-21.4,59.4-32.1,89.1-1.2,3.3-1.7,7.2-5.3,9.2-2.3.3-3.7-1.3-5.1-2.7-14.5-14.4-28.1-29.7-42.1-44.6-4.1-4.3-8.2-8-13.8-10.2l-19.9-8a18.9,18.9,0,0,0-12.2-.9,226.9,226.9,0,0,0-54.3,19.4c-2.9,1.5-5.8,3.5-9.4,2.1s-5.1-6-7.1-9.4c-4.9-8.2-9.2-16.7-14.4-24.6s-8.1-18.8-8.7-29.3-1.7-18.2-2.7-27.3a17.6,17.6,0,0,0-4.8-10.3c-14.2-15.6-28.2-31.4-42.3-47.2-4.6-5.3-5.7-5.6-12-2.8q-26.7,11.7-53.3,24.1c-3.7,1.8-5,4.1-5,8.1.2,15.3-.2,30.7.2,46,.1,6-1.8,10-6.6,13.5-18.4,13.5-36.2,27.8-54.8,41.1-6.6,4.8-11.1,10.3-11.7,18.7-.2,3.1-1.3,6.1-2,9.2s-1,3.6-3.2,4.1-3.5-2.3-4.7-4c-18.5-27.7-38.2-54.5-57.2-81.8-5.4-7.7-7.6-7.9-13.8-.5-8.2,9.6-13.3,21.1-18.1,32.6a441.8,441.8,0,0,0-18.6,54.8c-.9,3-1.3,5.9.4,8.7,10,17.2,6.7,34.3-.6,51.3-5.6,13.1-15.1,23.9-22.2,36.1A2.3,2.3,0,0,1,287.1,638.1Z" transform="translate(943 197.5)"/><path class="f" d="M808.8,570.3c4.7-12,9.6-23.9,14-36C831,511.9,839,489.4,847,467h0a3.8,3.8,0,0,0,.9-1.3c3.9-5.5,7.3-11.3,11.7-16.4,9.2-10.7,17.8-22.4,28.6-31.2,14.7-12,31-22,47-32.2s30.8-18.4,46.7-27.8c3.3,6.3,6.6,12.5,9.7,18.8,9.8,19.2,19.4,38.5,29.4,57.5a19.3,19.3,0,0,0,7.7,7.8c10.2,5.9,20.7,11.2,31.1,16.7,24.9,16,50,31.4,74.3,48.2,6.4,4.4,9.3,13.7,15.2,19.4,8.5,8.2,17.5,16.6,27.7,22.4s9.7,12.5,8.8,21.2c-1.4,14.5-2.5,29.1-3.6,43.6,0,.7,1.2,1.6,1.9,2.4-6.8,1.5-13.6,2.5-20.2,4.6-2.1.7-3.5,4-5.2,6.1s-2.8,1.6-4.4,1.9c-19.6,3.4-39.1,6.5-58.7,9.4-2.9.4-6,1.2-8.5-1.1l-8-12.2c-.8-.6-.6-1.3-.2-2.1l8,.2a.9.9,0,0,1,1.2,0c10.1,2.7,10.5-.7,6.2-8.9-5.8-11.3-10.6-23.2-16.2-35.8l-32.6,41.4,17.9,4.6,2.4,2.8-21.6,18.3a10,10,0,0,1-6.5,2.1c-5,0-9.8,1.4-14.7,2.4a12.6,12.6,0,0,0-6.4,3.7c-14.2,14.3-28.1,28.9-41.9,43.6-10.6,11.3-22.1,21.7-32.1,33.6-3.6,4.2-6.3,4.3-10.7.6-28.5-24.2-56.9-48.7-85.7-72.7-4.7-3.9-7-8.3-6.7-14.6.4-10.7,0-21.3.1-32a13.3,13.3,0,0,0-3.9-9.9c-8.2-8.8-16.2-18.1-24.7-26.7C809.6,574,807.8,572.7,808.8,570.3Z" transform="translate(943 197.5)"/><path class="g" d="M-625.1,584c10.6-4.5,21.2-8.7,31.6-13.3s18.1-8.5,27.3-12.4a7.5,7.5,0,0,1,6.2.6c18.2,13.1,37.3,25.2,53.7,40.3,12.9,11.6,22.7,26.7,33.2,40.8,16.3,22,16,21.9,42.7,15.7s52.5-11.6,78.7-17.3c1.5-.3,3.2.3,4.7.5.6,2.9-1.9,3.5-3.7,4.4-16.1,9.1-32.7,17.1-49.1,25.5-11.9,6.1-21.6,14.9-31.7,23.3l-26.3,22.1a21.6,21.6,0,0,1-8.2,4.6c-9.3,2.6-18.6,5.1-28.1,6.9-1.6.3-3.3.9-4.5-.9l-3.7-25.8c-11.8,8.5-23.2,16.6-35,25.2l10.4,6.7c-.6,3.5-3.7,3.4-6.1,4-13.8,3.5-27.5,6.9-41.2,10.6-6.9,1.8-6.9,1.9-7.2,9-.4,9.8-1.3,19.6-1,29.5.1,4.1-1.8,6.4-5.8,7.5l-23.2,6.1c-2,.5-3.9.9-5.8-.4-1.2-6.2-2.6-12.3-3.4-18.5-.2-1.3,1.7-3.3,3.2-4.2,6.3-3.9,12.8-7.5,20-11.5l-29.3-34.4,14.2-8.3-29.3-28.9,17.1-3.5c-8.3-11-16.2-21.4-24.8-32.6l-17,39.6h16.1L-671,735h0l15.5-.7c-4.2,16.6-8.4,32.8-12.8,50.3,8.8-1.5,16.7-3.1,24.7-4.1,1.7-.2,5,1.6,5.2,2.9,1.6,9.6,2.6,19.3,3.9,30.1-11.1-1.9-21.6-3.7-32.1-5.7-1-.3-2-2.5-2.4-3.9-3.2-10.8-6.3-21.7-10-34.3-13.6,20.3-25.3,41.6-53,41.3-1.8-1.2-2.2-3.2-2.9-5.1-2.4-7.4-4-15.1-5.9-22.7-.4-1.8-.6-3.6.7-5.2l21.6-8.5-23.1-38.7,15.2-5.6c-7.8-11.1-15.4-21.8-23.6-33.6h17.4l-18.9-37-23.8,36.7,15.8,3.1-26.7,34.6c-4.5,2.9-9.7,1.7-14.5,2.4-6.4.9-12.9,1-19.4,1.9a27.2,27.2,0,0,1-19-4.2l-12.1-8c-2.8-2-5.4-2.1-8.2.2-14,11.2-28.1,22.4-42,33.8a21.3,21.3,0,0,0-6.4,10c-6.4,17.8-12.5,35.8-19,53.7-2.7,7.3-5.3,14.7-7.9,22.1-2.1,5.5-1.8,5.9,3.7,7.8,2,.8,4.8.5,5.5,3.5l-16.6,8.8q.1-151.2.2-302.4c0-4.5.1-9,.2-13.5a1.2,1.2,0,0,1,1.8-.1c.1.1.4.2.4.3,3.4,17.9,16.3,23.8,32.3,27.1,12.9,2.7,25.4,7.1,38.1,10.7,4.3-.5,7.4,1.9,10.1,4.6,9.3,9,19,17.6,28.1,26.9s20.9,19.6,30.9,29.8a18.5,18.5,0,0,0,7.4,5.3,80.3,80.3,0,0,0,10-17.2c3.5-8.3,9.9-11.1,18-12.8q54.5-11.1,108.2-24.4c6.2-1.6,12.1-4.7,18.6-5.2l10.8-4a3.3,3.3,0,0,1,1.1-.9h0c.2-.5.6-.7.9-1.2Z" transform="translate(943 197.5)"/><path class="h" d="M-169.9-191c26.9-9.6,53-9.7,77.2,7.7,16.1,11.6,25.9,27.1,26,48.4,15.3-4.1,29.4-2.1,42.1,6.7,3.8,2.6,7.7,5.7,10,9.5,3.4,5.6,7.3,5.1,12.8,4.3,17.3-2.3,34-.4,47.4,12.5s10.7,25.4-3,35.7c-2.4,1.8-3.6,5.3-5.8,7.6a9.3,9.3,0,0,1-5.6,2.5H-264.1c-4.9-1.7-10.1-1.1-15.2-2.4A81.4,81.4,0,0,1-304-68.7c-14.9-9.3-15.4-24.6-1.3-35,8.6-6.4,18.6-9.9,29-11.7,6.9-1.2,11.5-3.9,15.2-10.2,7-11.8,18-19.2,30.9-24a95.6,95.6,0,0,1,21.6-5.7c3.2-.4,4.5-2.5,5.7-5a64.2,64.2,0,0,1,23.1-26.2A36.8,36.8,0,0,1-169.9-191Z" transform="translate(943 197.5)"/><path class="i" d="M-637.8,590c-14.7,4.3-29.3,9.3-44.3,12.8-29.9,7.2-59.9,13.4-89.8,20.4-2.6.6-5.4,3.2-6.9,5.6-4.7,7.8-8.9,15.9-13.7,24.6l-46-44.4c-7.4-7-14.6-14.2-22.1-21-2.4-2.1-5.6-3.3-8.5-5-.7-6.1-1.9-12.2-1.9-18.2,0-3.2,1.2-7.5,3.5-9.2,16.1-12.3,32.7-23.9,48.9-36.1a26.9,26.9,0,0,0,7.9-10.3,184.1,184.1,0,0,0,9.9-25.5c4.2-14.1,12.3-24.3,25.8-30.6,6.9-3.2,13.5-11.3,19.5-10.6s11,9.9,17,14.6c14.2,10.9,20.2,27,26.3,42.6,7.9,20.3,20.1,37.1,35.9,51.8C-663,563.8-650.6,577.1-637.8,590Z" transform="translate(943 197.5)"/><path class="j" d="M133,302.1l-2.1-3c-2.6-4.1-3.5-9-4.9-13.5s-3-8.9-4.2-13.4-3-5.1-6.9-4.4c-8.7,1.4-17.5,2.8-26.2,3.9a19.5,19.5,0,0,0-9.5,4.2c-23.7,18.6-47.5,37-71.1,55.8-3.2,1.2-6,3.8-9.8,2.7A46.8,46.8,0,0,0-14,332.7c-25.5-.5-50.5-5.3-75.4-10.6-6.1-1.3-12.2-3.1-18.6-3.1l-1.8-3.2a143.4,143.4,0,0,1-27.7-38.7c-2.2-4.6-4.6-9.2-6.9-13.8-.7-1.6-1.9-3.2-.8-5.2,18.6-.3,37.4.2,55.9-1.4,12.4-1.2,22,2.1,32.3,8.9C-39.6,277-19.8,283,1.2,284c16,.8,29.4-2.6,37.8-18.4,4-7.6,10.9-11.3,21.2-10.1s19.7-4,29.3-3.1c23.4,2.1,44.8,10.4,64.6,23.7a48.1,48.1,0,0,0,24,7.5c16.8.6,33.8-.9,50.7-1.6,1.8-.1,3.6,0,7.2,2.3-6.4,5.8-12.9,11.4-19.2,17.3-12.1,11.1-26.5,8.7-40.6,6.9S147.4,304.2,133,302.1Z" transform="translate(943 197.5)"/><path class="k" d="M-145.2,258.1l30.6,49.7,4.8,8c-4.5-1.1-8.9-2.4-13.4-3.4-17.4-3.9-34.6-9.3-52.2-10.9-23.6-2.1-47.5-1.2-71.3-1.4-9.5,0-18.9.7-28.4,1.1-5.5,1-11.2-.6-16.7.8-9.6,1.7-19.2,5.1-28.6,4.7-17.9-.8-35.7-3.7-53.6-5.8-1.3-1.6-.7-3.3,0-4.7a448.2,448.2,0,0,1,22.2-43,3.6,3.6,0,0,1,1.5-1.2l1.8-.3c9.6.7,19.1,2.8,28.7,3.7,16.4,1.5,32.9,1.8,49.4,1.9,29.8,0,59.6-1.5,89.4-1.3,9.2.1,18.3-.8,27.5-.8,2.5,0,5,.1,7.2,1.6Z" transform="translate(943 197.5)"/><path class="i" d="M-146.3,256.8l-42.3,1.2c-27.9.4-55.9,1.6-83.7.8-26-.8-51.8-3.9-77.7-6-1-1-.7-2.2-.2-3.3,3.2-6.4,6.3-12.9,12.1-17.5l1.2-.9c24-18.4,24-18.4,54.4-22.4l2.4-.3a51,51,0,0,0,33.9-14.7c5.9-5.6,12.8-10.1,19.1-15.3a25.6,25.6,0,0,1,6.1-3.3c2.7.7,6.3.4,8.2,2.1,14.6,12.4,28.9,25.4,43.4,38C-156.6,226.3-153.7,242.8-146.3,256.8Z" transform="translate(943 197.5)"/><path class="j" d="M-390,297c-27.4-7.5-54.9-14.6-82.1-23-4.8-1.5-11.2-8.5-11.1-12.8s5.4-11.6,10.2-14.9c23.3-15.9,50.9-19.3,77.7-24.2,15-2.7,30.1-4.1,45.2-6.1a2.3,2.3,0,0,1,1.1,2.5c-1.1,6.5-1.9,13.1-6,18.7-2,.7-3.5-.6-5.2-1.1-6.4-1.8-12.6-2-18.7,1.1.5,3.9,3.5,5.4,6,7.1s7.9,3.3,11.1,6.4c.1,5.5-3.3,9.7-5.5,14.1-5.1,10.1-11.9,19.3-17.9,28.9C-386.2,295.4-387.2,297.6-390,297Z" transform="translate(943 197.5)"/><path class="l" d="M548,277.2l57.4,10.9v2.3c-14.3,3.8-28.4,8.8-42.9,10.8-5,.6-11.2-5.8-16.4-9.6s-8-3.8-13,.1c-13.4,10.5-27.5,20.2-41.2,30.4-3.6,2.7-5.9,3.4-8.7-1s-5.6-6.1-9-9.6c-5.1,9.2-10.6,17.5-14.5,26.6-5.9,13.8-15.9,23.1-28.1,31.2-17.6,11.6-34.4,24.4-51.5,36.6l-12.7-14.1,2.3-2.8c18.5-10.8,31.8-27.2,46-42.6,9-9.6,16.3-20.6,25-30.5,10.3-11.6,23.9-17.3,38.7-20.1a28.3,28.3,0,0,0,14.9-7.5c4-4,8.6-7.3,12.5-11.5,1.1-1.2,2.4-2.4,4.3-1.9l33.9,1.9C546,276.5,547.1,276.1,548,277.2Z" transform="translate(943 197.5)"/><path class="m" d="M-583,519c3.9-8.1,7.9-16.1,11.9-24.1,6.9-6.4,13.5-13.1,20.8-19s14.7-10.6,22.1-15.8c21.1-15.8,42.2-31.5,60.6-50.5A21.8,21.8,0,0,0-465,406h0c.5-.6,1.4-.3,1.8-1,3.6-5.2.7-8.7-3-11.9-5.7-5-5.3-8.3.7-13.6,27.8-24.6,53.9-51.1,75.5-81.5,5-1.9,11.8-.5,15.4,3.2-1.4,15.4-2.8,30.8-4.6,46.1-.1,1.5-2.9,3.8-4.4,3.8-8.2,0-16.4-.6-24.6-1l-.8.9h0a47.2,47.2,0,0,1-15.3,5.7c-7.9,1.7-11.5,6.1-12.1,13.9-.3,4.1-.8,8.3-3.6,11.8-.3,14.3-9.6,23.2-19.2,32.2s-19,19.2-29,28.1c-5.8,5.1-8,10.1-4.4,17.1,2.4,4.8.9,7.4-3.8,10.1-27.4,15.6-54.6,31.6-81.9,47.4a35.7,35.7,0,0,1-4.5,1.9Z" transform="translate(943 197.5)"/><path class="m" d="M-355.9,237.2c1.9-7.1,3.9-14.2,5.8-21.2-.4-7,3.7-9.3,9.9-11,35-9.3,69.9-19.1,104.9-28.4,4.5-1.2,9.5-1,14.3-1.5-12.2,9.8-23.6,20.9-36.9,28.7-8.4,5-19.5,6.5-29.5,6.9-21.1.8-37.2,11.1-51.8,24.5-4.9,4.5-7.3,11.7-10.8,17.6h-.9c-3.8.2-7.5,0-9.8-3.7A17.8,17.8,0,0,1-355.9,237.2Z" transform="translate(943 197.5)"/><path class="n" d="M-667.9,437c-.3-24.9,19.2-46.1,46.8-50.9,3-.5,6.1-.7,9.2-1.1,6-1.3,12,.1,17.9-.7,12.4-10.6,24.4-21.4,37.2-31.5,3.6-2.8,9.1-3.3,13.8-4.9a37.8,37.8,0,0,1,12.1,0c8.5.9,17.9,7.1,21.7,14.2-17.2-2.5-34.1-3.4-50.3,4.2s-24.9,22.7-29,40.6h-10.4a99.2,99.2,0,0,0-21.1.1c-19,1.5-36.8,5.2-45.8,24.9a22.7,22.7,0,0,0-1.4,5.1C-667.5,437.3-667.7,437.3-667.9,437Z" transform="translate(943 197.5)"/><path class="o" d="M-169.9-191c-14.6,8.3-27,18.8-33.6,34.8-.4,1-2.2,1.9-3.5,2.1-24.3,3.6-45,12.5-57.1,35.8-.9,1.8-4.7,2.2-7.2,3.3-12,4.9-25.1,8.1-35.7,15.2s-10,21.8,2,28.3,23.6,9.1,35.5,13.5l5.4,2c-18.2.5-36.3-.5-52.3-10.7-19-12.2-17.8-30.1,2.7-39.8,7.4-3.5,15.7-5,23.6-7.5,1.2-.4,2.9-1.1,3.4-2.1,10.8-20.8,29.3-30.5,51.2-33.3,11.4-1.4,12-10.9,17.4-16.8C-205.1-180.6-189.6-189.7-169.9-191Z" transform="translate(943 197.5)"/><path class="p" d="M511.1,274.9c-3.5,3.3-7.3,6.3-10.6,9.8-8,8.8-18.3,12.1-29.6,14.7-19.1,4.2-30,18.9-42.1,33-16.3,19.2-35,36.2-52.8,54-1.5,1.5-4.1,1.8-6.3,2.6,15.4-20.8,29.1-43.2,46.8-61.9s40.1-32.5,63.9-43.1c8.9-3.9,18.3-6.7,27.5-9.8C508.8,273.9,510,274.6,511.1,274.9Z" transform="translate(943 197.5)"/><path class="q" d="M-360.2,248.9l9.3,4c-5.5,10.7-11,21.3-16.3,32-2.6,5.2-4.5,10.7-6.8,16a.9.9,0,0,1-.6.3L-390,298v-1l27.9-46.1C-362.3,249.4-361.6,248.8-360.2,248.9Z" transform="translate(943 197.5)"/><path class="p" d="M-465,406c-4.5,5.3-8.2,11.6-13.6,15.9-16.2,13.1-33,25.5-49.6,38.2l52.1-44.9Z" transform="translate(943 197.5)"/><path class="d" d="M1068.8,362.8q.2,32.6.1,65a13.2,13.2,0,0,1-.8,3.3c0-21.8-.1-43.7-.1-65.5A9.8,9.8,0,0,1,1068.8,362.8Z" transform="translate(943 197.5)"/><path class="q" d="M-620,407h0Z" transform="translate(943 197.5)"/><path class="d" d="M668.1,261.1l-18.1.8Z" transform="translate(943 197.5)"/><path class="r" d="M-594,384.3l-17.9.7Z" transform="translate(943 197.5)"/><path class="k" d="M154.9,391v0Z" transform="translate(943 197.5)"/><path class="k" d="M1114.1,346.9h0Z" transform="translate(943 197.5)"/><path class="s" d="M548,277.2l-3-.4,16.1-.8Z" transform="translate(943 197.5)"/><path class="a" d="M-667.9,437a.9.9,0,0,1,.7,0l-1.2,8.4h-.9C-668.8,442.5-668.4,439.7-667.9,437Z" transform="translate(943 197.5)"/><path class="o" d="M-530.9,347.9h0Z" transform="translate(943 197.5)"/><path class="t" d="M-939.9,544.9h-1.8c-.1-1.3-.1-2.6-.2-3.9Z" transform="translate(943 197.5)"/><path class="p" d="M-463.2,405l-1.8,1Z" transform="translate(943 197.5)"/><path class="e" d="M847.9,465.7,847,467Z" transform="translate(943 197.5)"/><path class="e" d="M-625,583.9l-.9,1.2Z" transform="translate(943 197.5)"/><path class="e" d="M-625.9,585.1l-1.1.9Z" transform="translate(943 197.5)"/><path class="r" d="M-498.6,724.8c19.1-2.9,37.3-6.9,52-21.5a241.1,241.1,0,0,1,71.5-48.9c9.7-4.4,18.8-10.3,28.1-15.5l2.9-1.2a1.1,1.1,0,0,0,1-.8l6.3-3.7c14.1-7.2,28.3-14,42.2-21.5,31.6-17.1,63-34.4,94.6-51.7,14.8-8.1,29.2-17.4,44.8-23.9,10.8-4.4,23.1-5.4,34.8-7,31.2-4.2,62.5-7.8,93.7-11.7,11.5-1.4,23-3.2,34.5-4.1,2.7-.3,6.2,1.6,8.3,3.5,14.4,13.4,28.5,27,42.7,40.6,29.3,28.1,58.4,56.3,87.7,84.5a43,43,0,0,0,6.1,5.2c18.9,12.6,21,33.6,26.3,52.8,8,28.5,15.7,57,24,87.3,4.6-7.9,8.7-14.4,12.6-21.2l71.1-126.5a5.8,5.8,0,0,0,.5-1.4c8.7-15.2,18.5-29.9,25.9-45.8,6.7-14.3,6.1-29.4-2.5-43.5a8.3,8.3,0,0,1-.5-6c9.8-26.5,19.4-53,30-79.1,2.5-6.3,8.5-11.3,13.4-16.3,1-1,5.8-.2,6.8,1.2q32.1,45.1,63.8,90.5c1.9.5,2.8,2.2,3.8,3.7,21.4,32.6,42.7,65.1,64,97.8,3,4.6,3.3,4.8,8.3,2.3,12.2-6.1,23.9-13.1,35.9-19.6,4.9-2.6,7.9-7.1,11.3-11.2,26.3-31.1,56.2-58.1,91.3-79,4.7-2.8,9.3-5.9,14.4-7.8,12.9-5.2,25.8-10.6,38.7-15.7a134.4,134.4,0,0,1,16.7-5.1c21.9-5.7,39.6,3.7,54.6,17.9s30.6,31.9,45.8,47.9c9.5,10.4,19.1,20.8,28.2,31.5a16.4,16.4,0,0,1,3.8,9.1c.5,8.3.9,16.7,0,25-1.2,11.5,2.7,19.2,11.8,26.6,27.4,22.3,54,45.6,81.1,68.3,1.3,1.1,5.9.8,7.2-.6,25.3-26.1,50.1-52.8,75.8-78.5,4-4,12-4.1,18.1-5.6,3.1-.7,6.3-.6,9.4-.8l-15.3,18.1,19.2,3-28.7,52.8c10.5.7,20.2,1.7,29.8,1.6,5.7,0,6.2,2.4,5.7,6.9-1.4,10.9-2.4,21.8-4.1,32.6a8.1,8.1,0,0,1-4.7,5.5c-11,3.1-22.2,5.8-33.4,8.1-6,1.3-10,3.3-10.1,10.3,0,3.4-1.3,6.8-2.5,12l-17.7-37.8-32.2,41,18.7,4.8-35.9,39,19.6,2.9c-9.8,17.9-19,35-28.6,52.6l35.5,2.6c-.5,6.2-.9,12.3-1.8,18.2-.1.8-4,1.9-5.5,1.3-16.4-6.9-32.7-14.1-49-21.2-7.2-3.1-14.7-5.7-21.4-9.6-2.6-1.5-5-6.1-5-9.3.1-10.5,1.1-21.1,2.2-31.7.2-1.8,2.4-4.1,4.3-4.8,7-2.4,14.4-3.9,21.4-6.5,1.5-.6,3.4-4.9,2.7-6.3-5.9-12.1-12.2-24-18.7-35.8-2.6-4.7-1.9-6.8,3.5-7.7,3.9-.6,7.6-2.1,11.9-3.3l-25.3-39.7,20.3,1c-6.6-15-13-29.3-20-45.1l-32.5,41.6,18.9,4.3-36.3,39.2,20,2.7c-5.3,9.5-10.3,18.8-15.7,27.9-.5.9-3,1.4-4.2.9-23-8.3-46-16.8-68.9-25.2h0c1.7-3.9,4.1-6.9,4.4-10.2,1.2-11.7,1.3-23.5,2.6-35.2.2-2.5,3.3-5.8,5.8-6.8,6.8-2.7,14.1-4.1,20.9-6.8,1.4-.5,2.8-4.8,2.1-6.3-6.9-13.6-14.2-27-21.7-41.1l18.6-5.2c-8.4-13-16.4-25.7-25.2-39.4h19.8c-6.8-15.2-13.1-29.4-19.9-44.4l-32.4,41.3,18.9,4.6-36.2,39.2,19.8,2.6c-9.6,17.6-18.9,34.9-28.7,52.8,11.4.9,21.6,1.5,31.7,2.7,1.3.1,3.3,3.2,3.2,4.8-.8,11.4-2,22.8-3.1,34.2-.2,1.7-.6,3.5-.9,5.2l-2.7,1.7c-5.6-7.2-11.5-14.1-16.7-21.6-17.6-24.8-34.8-49.8-52.5-74.6a9.6,9.6,0,0,0-7.2-3.5c-13,.6-25.8,1.9-38.8,2.6-1.6.1-3.4-1.3-5.1-2,1.5-1.9,2.6-4.8,4.5-5.5,5.7-2.2,11.7-3.4,18.5-5.3l-17-32.6c.3-.4.4-.8.6-.9,11.5-5,11.5-5,4.5-15.8-1.8-2.6-3.4-5.4-5.1-8s-3.2-5-5.7-8.7l14.9,1c-4.9-11-9.5-21.2-14.6-32.8l-23.5,29.9,13.1,3.6-25.4,27.8,13.8,2.2-20.2,37.8c6.3.5,11.8,1.7,17.3,1.3,8-.5,10,2.2,7.1,8.3-9,.9-17.6,1.8-26.2,2.4a4.4,4.4,0,0,1-3.6-1.6c-5.5-8.1-10.7-16.4-16.4-25.3H568l-14.6-32.2-23,29.8,12.9,3.5-25.1,27.7c1.8.5,3.2,1.3,4.5,1.3,11.7-.5,7.2,4.9,4,10.3-4.9,8.4-9.5,16.9-15.3,27.4l-12.8-26.6-23,29.5,13.2,4-25.3,27.1,4.3,3.2c-7.8,5.8-14.8,11.5-22.3,16.6C410.4,809.9,375,833.4,340,857.3c-2.5,1.7-4.6,5.9-4.7,9-.6,11.8-.1,23.7-.4,35.5a7.8,7.8,0,0,1-4,5.5c-6.3,2.5-13.2,3.7-19.3,6.6s-10.5.7-14.6-4.3c-7.5-9.1-15.3-18-23.5-26.4-27.7-28.4-54.9-57.3-83.9-84.3-11.4-10.6-26.9-17-40.7-24.9-17.8-10.1-35.8-19.8-53.5-30.1-1.7-1-2-5.1-2.4-7.8-1.9-10.4,1.6-17,14.1-16.8L96.9,698.7l7.2-3.4-8.6-14.8c10.2-8.6-1.9-14.3-2.4-21.4-4.3,5.5-8.6,11.1-13.4,17.1l7,3.1c-4.8,5.4-9.3,10.6-14.1,16.2,10.6,1.5,5.2,6.9,2.8,11.5s-4.6,8.8-7,13.3c15.4,3.4,15.4,3.4,13,15.8-7.9-4.2-15.8-7.9-23-12.7-5.2-3.4-8.6-2.1-12.8,1.4s-8.8,6.3-13.9,9.9c-1.9-5.4-3.6-9.9-5-14.4-.2-.9.8-3,1.4-3,7.5-.4,3.9-4.6,2.6-7.8s-3-7-4.9-11.4l7.9.6-5.1-18.6L11.3,693.8l6.9,4.1L2,712.3l7,3.3L-5.4,736.5c3.8.8,6.9,1.4,10,2.3,1.5.4,2.9,1.5,4.3,2.2-1.2,2-1.9,4.7-3.6,5.9S-.2,749-3,750h0l-10.4-20.6,6.3-3-12-16.2c8.3.6,7.9-2.6,4.5-7.5s-4.3-7.4-7.1-12.4l-11.7,20,7.3,1.6c-2.9,4.3-5.5,8-8,11.8s-6.5,8.1,3.4,7.5L-40,755.6c4.2-.2,7.9-.5,11.6-.5,1.1,0,2.2,1,3.3,1.5-.8,1.1-1.3,2.9-2.3,3.3A102.9,102.9,0,0,1-48.5,766l7.7-5.1-13.9-17.1,6-4.7c-4.3-4.6-8.5-8.9-13.1-13.9l7.5-2.5-12.6-17.2c-3.3,7.2-6.4,13.7-9.7,20.8l7.7,1.2-10,19.1,7.7.8c-1.6,6.4-3.1,12.5-4.8,18.5-1.3,4.4-1.6,7.3,4.6,5.3,2.6-.8,5.5-.6,10.3-1-2.9,1.6-4.1,2.7-5.6,3.1-8.5,2.9-17.3,5-25.6,8.5s-9-3.1-12.6-6.3c-1.6-1.4-2.6-3.4-4.1-5.5l5.8-4.5-13.3-14,7.8-2.3-12.9-17.6c-3.3,7.5-6.1,14.1-9.2,21.1l7.4.9-9.2,17.9c2.4,1.5,6.3,3.6,6.2,4-2.7,6.2.3,15.9-8.7,18.4-34.2,9.2-68.8,16.8-102.5,27.4-15.2,4.7-28.9,14.6-42.8,22.8-15.9,9.4-31.2,19.8-47,29.3a11.8,11.8,0,0,1-9.4.5c-26.9-12.4-53.2-26.1-80.5-37.5-10.5-4.4-23-4.3-34.7-5.3-28.6-2.3-57.3-4.1-85.9-6.3-1.1,0-2-1.7-3.1-2.7,1.4-1.3,2.6-3.8,4-3.9a150.6,150.6,0,0,1,19-.1c5.7.4,5.4-2.6,4.7-6.5-2.1-12.2-4.2-24.5-6.3-37a10.7,10.7,0,0,1,2.9-.6c13.4-.5,13.4-.5,10.1-13.4-2.1-8.3-4.1-16.6-6.4-25.8l15.7,5.2C-497.8,734.5-498.2,729.7-498.6,724.8Z" transform="translate(943 197.5)"/><path class="r" d="M-925.5,852.1c-12.7-5.3-12.8-5.3-8.2-18.6,8.4-23.8,16.6-47.7,25.8-71.3,2.1-5.2,7.3-9.6,11.9-13.5,11.9-10,24.1-19.8,36.6-29.2,1.7-1.3,5.9-1.3,8-.1,9.8,5.1,17.7,14.2,30.5,12.6s23.1-2.1,34.7-3.1l15,3.3L-791.7,779c8.7,0,16.8-.3,24.9.2,1.7.1,4.6,2.9,4.6,4.5.1,10.8-.2,21.6-1.1,32.4-.1,1.7-3.2,4.1-5.4,4.7-23.2,6.4-46.4,12.9-69.8,18.3-12.1,2.9-14,13.6-19.8,21.5-1.5,2-4.2,5.7-5.1,5.4-5.3-2.1-10.3-5.1-15.3-7.8,1-1.4,1.8-3.6,3.1-4.1,6.9-2.4,13.9-4.4,22.1-6.9l-22.6-31.1,14.9-4.6c-7.8-8.7-15.1-17.1-23.1-26.1l16.7-1.2c-6.4-10.1-12.2-19.1-18.6-29l-23.7,29.1,15.7,2.3-27.4,29,16.5,1.2Z" transform="translate(943 197.5)"/><path class="r" d="M1231.8,614.4c17.8,1.5,25.6-11.9,35-23.1s18.1-21.5,27.7-32.8l7.5,15.7c3.4,4.8,4.8,10.5,6.9,15.9,4.9,12.4,9.8,24.7,14.9,37,1.6,3.9,2.8,7.9,4.1,11.8-2,5.8-4,11.5-6.3,18.3l12.6-.8c4.2,9,7.5,18.4,10.9,27.7-4.7,4.5-9.2,9.2-14.3,13.2-1.1.8-4.8-.3-6.4-1.6-14.9-12.6-29.7-25.5-44.5-38.3s-29.6-25.6-44.3-38.5A41.1,41.1,0,0,1,1231.8,614.4Z" transform="translate(943 197.5)"/><path class="r" d="M1087.1,637l63.7-9.4c2.6-.4,5.3-.5,7.9-.8.1,15.3.3,30.6.1,46,0,1.6-1.8,3.9-3.3,4.8q-20.2,11.9-40.8,23.1c-1.1.7-3.6.7-4.2,0-8.8-10.8-17.3-21.7-26.5-33.5l18-5.2Z" transform="translate(943 197.5)"/><path class="r" d="M-617.2,797.2c10.2-2.6,20.3-5.1,30.3-8,1.4-.3,2.7-3,2.8-4.7.6-11.4.6-22.9,1.3-34.3.1-1.9,2.4-4.6,4.2-5.1,15.6-4.3,31.2-8.1,46.8-12.1a42.5,42.5,0,0,0,4.9-2.1c0,1.4.4,3.6-.2,4-11.5,7-23,13.8-35.5,21.2l14.6,7.4L-584.6,800c7.9,3.1,15.1,5.8,22,8.8,1.9.8,4.7,3.6,4.5,4.1-1.9,3.6-4.6,9.8-6.7,9.6-15.6-1-31.2-3.3-46.8-5.4-1.2-.2-2.9-2.3-3.2-3.7C-615.9,808.1-616.4,802.6-617.2,797.2Z" transform="translate(943 197.5)"/><path class="g" d="M1327.9,638.9c-3.9-8.9-8.1-17.6-11.7-26.6-5-12.6-9.5-25.4-14.2-38.1l42.6-47.3c.8-.9,2.2-1.3,3.4-1.9-5.1,9.9-10.2,19.9-15.5,30.4l19,1.7L1322,601h19.6Z" transform="translate(943 197.5)"/><path class="g" d="M1377.9,542.1c7.6,5.7,14.9,11.9,22.8,17.2s9.4,15.5,10.3,24.9c1.5,14.5,3.2,29,5,43.4.2,1.3,1.5,2.5,2.4,3.8-1.4.1-3.3.9-4,.3-12.6-11.2-25-22.7-38.3-34.8l17.7-8-31.7-35.7,19.9-2.4Z" transform="translate(943 197.5)"/><path class="r" d="M1112,738.8c3.4,10.1-2.7,14.2-13.4,15.4-6.5.7-12.9,3-19.4,4.1-1.2.2-4-1.9-4-2.9.4-10.1,1-20.2,2-30.2.2-1.2,3-3,4.5-3,9,0,17.9.4,26.9,1,1.2.1,3.1,2.1,3.3,3.4C1112.3,730,1112,733.5,1112,738.8Z" transform="translate(943 197.5)"/><path class="g" d="M1345.1,684.1l-10.9-27.7,21.7-2C1360.6,667.6,1356.7,677.3,1345.1,684.1Z" transform="translate(943 197.5)"/><path class="r" d="M-740.1,777.9l8.1,33c-2.6.9-5.2,2.2-7.8,2.3s-4-1.8-4-2.9c-.3-9.2-.4-18.5,0-27.7C-743.8,781-741.4,779.5-740.1,777.9Z" transform="translate(943 197.5)"/><path class="r" d="M995.4,824l-13.7-22c5.3,0,9.8-.2,14.1.2,1.2.1,3.2,2.5,3,3.6C998.2,811.1,996.9,816.4,995.4,824Z" transform="translate(943 197.5)"/><path class="r" d="M854.1,868.8l-11.4-25.7c4.4,0,8.1-.1,11.8.1.8,0,2,1.5,2,2.2C855.9,852.3,855.1,859.1,854.1,868.8Z" transform="translate(943 197.5)"/><path class="r" d="M1378.2,653.2l4.1-1.2.6,1.6-4,1.5C1378.7,654.5,1378.4,653.9,1378.2,653.2Z" transform="translate(943 197.5)"/><path class="r" d="M1078.9,622.7a14.9,14.9,0,0,1,.2,2.1A14.9,14.9,0,0,0,1078.9,622.7Z" transform="translate(943 197.5)"/><path class="r" d="M-3,750l-1,.7-.3-.3L-3,750Z" transform="translate(943 197.5)"/><path class="r" d="M1088.1,622.9h0Z" transform="translate(943 197.5)"/><path class="l" d="M99.1,295.2c-3.4,8.1-6.3,16.5-10.1,24.5a229,229,0,0,1-12.9,22.5c-.8,1.3-4.9,2.3-6.3,1.5-6-3.4-11.6-7.6-17.7-11.7-2.2,6.6-4.6,12.5-6,18.5s-5.5,10.8-12,13.6c-25.5,10.9-51.5,21-76,33.9-22.9,12-43.6,27.8-57.1,51.1h-23.1c8.7-22.4,11.8-46.9,35-60.3,5.1-2.9,9-8.1,13.4-12.3l.9-1.1a2.9,2.9,0,0,1,1.2-.7c24.6-10.6,49.2-21.3,73.9-31.6a66.7,66.7,0,0,0,20.9-14.2,19.6,19.6,0,0,1,3-2l1.4-.6,1.4-.5c10.2-2.7,19.3-8,28.6-12.9,11.6-6.1,22.7-13.4,35.4-17.2a16.1,16.1,0,0,1,4.8-1.2A1.5,1.5,0,0,1,99.1,295.2Z" transform="translate(943 197.5)"/><path class="n" d="M-365.1,505.8c-21.6,2-37.1,14.4-41.9,34.4-1.2,5-3.1,6.8-7.9,5.6a1.7,1.7,0,0,0-1.2-.1c-13.8,1.5-27.9,1.6-41.2,5s-20.9,14.1-21.1,28.8c-3-27,16.7-50.5,45.3-52.1,13.9-.8,23.7-5,33.2-15.2,11.5-12.3,25.8-21.9,44.2-16.9,6.1,1.7,11.4,6.4,18.3,10.4h-26.5A1.7,1.7,0,0,0-365.1,505.8Z" transform="translate(943 197.5)"/><path class="s" d="M-440,382.4c1.4-7,2.6-14.1,4.1-21a4.1,4.1,0,0,1,2.2-2.9c8.2-2.7,16.5-5.1,24.7-7.5Z" transform="translate(943 197.5)"/><path class="p" d="M-291.8,302l16.7-.8Z" transform="translate(943 197.5)"/><path class="s" d="M-409,351l.8-.9Z" transform="translate(943 197.5)"/><path class="m" d="M-582.8,519.2l-.6.4a2.1,2.1,0,0,1,.4-.6Z" transform="translate(943 197.5)"/><path class="r" d="M-365.1,505.8h0Z" transform="translate(943 197.5)"/><path class="t" d="M-73.7,376.4h0Z" transform="translate(943 197.5)"/><path class="r" d="M-416.1,545.7h0Z" transform="translate(943 197.5)"/><path class="g" d="M-343.1,636.9l-1,.8Z" transform="translate(943 197.5)"/><path class="u" d="M99.1,295.2h-1c-2.7-3.6-3.4-7.9-5-11.9-.7-1.8-.8-3.9-2.5-5.2s-4.5,2.1-6.4,3.6Q60,301.4,36.1,321.4A50.7,50.7,0,0,1,28,327h0l-1,1-3,1.1c-5.2,2.9-10.4,5.4-16.2,1.6,18.8-15,38.7-28.8,56.2-45.2,15.5-14.6,34-17.1,53.2-19.3,1.6-.2,4.5,1.8,5,3.4,3.2,9.7,5.9,19.6,8.7,29.5L115,295c-1.9-1.2-4.1.1-6-.8h-3c-1.6.9-3.5-.2-5,.9Z" transform="translate(943 197.5)"/><path class="p" d="M109,294.2l6,.8Z" transform="translate(943 197.5)"/><path class="p" d="M101,295l5-.9Z" transform="translate(943 197.5)"/><path class="f" d="M653,525.3c-9.4,6.1-18.9,12.1-28.2,18.3-30.8,20.5-56.5,46.5-81,74.1-8.4,9.5-21.7,14.9-33.3,21.2-15.7,8.4-16.1,8-25.8-6.7q-30.4-46.5-60.7-93.1c.6-1.2,1.9-2.4,1.9-3.7.7-16.4,9.8-26.8,23-35.7,16.9-11.3,32.7-24.4,48.8-37a9.7,9.7,0,0,0,3.2-6.4c.2-17.2,0-34.3.3-51.5a8.7,8.7,0,0,1,4.2-6.3c19-9,38-17.7,57.2-26.1,2.3-1,6.9-.2,8.5,1.6,15.6,16.7,31.5,33.3,45.8,51.2,4.4,5.6,6.1,15,5.7,22.4C620.9,478.4,638.5,501.2,653,525.3Z" transform="translate(943 197.5)"/><path class="a" d="M-671,735l-.2.4c.1-.1.1-.3.2-.4Z" transform="translate(943 197.5)"/><path class="t" d="M7.8,330.7,24,329.1c-4.3,3.7-8,8.8-12.9,11-27.3,12.3-54.8,23.9-82.3,35.7a3.7,3.7,0,0,1-1.5.1c3.6-2.7,6.9-5.7,10.7-7.8,20.3-11.5,40.7-22.7,61-34Z" transform="translate(943 197.5)"/><path class="v" d="M-479.6,732.3l42.8-30.7c12.7-9.1,25.8-17.7,38-27.5,7.1-5.7,14.2-6.3,22.5-4.7s16.1,2.4,24.1,3.3c1.6.2,3.5-.9,4.9-2,39.2-29.7,78-60.1,117.9-88.9,8.1-5.9,20.2-6.3,30.7-8.6,12.1-2.7,24.4-4.7,36.5-7.4a10.8,10.8,0,0,0,6.4-4.9c7.7-14.6,19.2-20.7,36.1-21.1,40.9-.9,81.7-3.9,122.6-5.6,6.8-.3,17.2-1.2,17.7,7.1.4,5-7.8,12.3-13.8,15.5s-13,1.3-19.6,2.2c-22,3-44.1,5.2-65.8,9.5-25.4,5.1-44.7,18.8-55.7,43.7-6.7,14.9-16,28.7-24.5,42.8-1.1,1.7-4.8,3.2-6.8,2.7-16.9-4.1-33.7-8.9-50.6-13.1-1.6-.4-4.1,1.5-5.7,2.9s-1.6,3-1.9,4.6c-4.2,20.3-17,30.1-36.6,36.9-48.6,16.9-96,37.5-146.5,47.9-13.4,2.7-28-.4-41.9-1.3C-458.7,735-468.5,733.5-479.6,732.3Z" transform="translate(943 197.5)"/><path class="w" d="M28,327l39-33c7.8-6.5,15.7-12.8,24.6-20.1,2.4,7.8,4.4,14.5,6.5,21.2-20.7,9.9-41.3,20-62.1,29.8C33.6,326.1,30.7,326.4,28,327Z" transform="translate(943 197.5)"/><path class="w" d="M27,328l1-1Z" transform="translate(943 197.5)"/><path class="h" d="M486,118.5c19.7-7,38.7-7.1,56.3,5.6,11.9,8.5,19,19.8,19.1,35.3,11.1-2.9,21.4-1.5,30.7,4.9,2.7,1.9,5.6,4.2,7.3,7s5.3,3.7,9.3,3.2c12.7-1.7,24.9-.4,34.6,9.1s7.9,18.5-2.1,26c-1.8,1.4-2.6,3.9-4.3,5.6a6.4,6.4,0,0,1-4.1,1.8H417.3c-3.6-1.2-7.5-.8-11.1-1.7a58.8,58.8,0,0,1-18.1-7.5c-10.8-6.8-11.3-18-.9-25.6a48.8,48.8,0,0,1,21.1-8.5c5-.9,8.4-2.8,11.1-7.4,5.1-8.7,13.2-14.1,22.6-17.6a65.6,65.6,0,0,1,15.8-4.1c2.3-.3,3.2-1.8,4.1-3.7a46.5,46.5,0,0,1,16.9-19.1A24.7,24.7,0,0,1,486,118.5Z" transform="translate(943 197.5)"/><path class="o" d="M486,118.5c-10.6,6.1-19.7,13.7-24.5,25.4-.3.8-1.6,1.4-2.6,1.6-17.7,2.6-32.9,9.1-41.6,26.1-.7,1.3-3.5,1.6-5.3,2.4-8.8,3.6-18.3,5.9-26.1,11.1s-7.3,15.9,1.5,20.7,17.2,6.6,25.9,9.8l4,1.4c-13.4.4-26.6-.3-38.2-7.7-13.9-9-13.1-22.1,1.9-29.1,5.4-2.6,11.5-3.7,17.2-5.5,1-.3,2.2-.7,2.6-1.5,7.8-15.2,21.3-22.3,37.3-24.3,8.3-1,8.8-8,12.7-12.3C460.3,126.1,471.7,119.4,486,118.5Z" transform="translate(943 197.5)"/></svg>