<svg xmlns="http://www.w3.org/2000/svg" viewBox="0 0 981.3 681.5"><defs><style>.a{fill:#6cf;}.b{fill:#fff;stroke:#6cf;stroke-width:17.13px;}</style></defs><title>logo</title><path class="a" d="M137.2,418c-9.8-57,.1-109.9,32.3-157.7,25-37.1,59-63.1,100.9-79.1,69.3-26.5,182.5-18.6,253,84.5,61.2-43.2,127.1-52.9,194.7-18.6s99.1,92.7,99.6,166c22.1,3.8,44.1,5,64.5,11.4,70.6,22.4,114.5,91.3,107.8,166-6.4,70.7-64.2,131-135.5,140.9a234.5,234.5,0,0,1-32.5,2.1H178.9c-68.1-.1-121-27.4-152.5-88.9-44.1-86.2.9-191.1,93.4-221Z" transform="translate(-9.3 -168.3)"/><path class="b" d="M147.9,640.8V741.1H119v90.6H18.5V589.8q0-70.3,34-109.2t95.7-38.9q59.3,0,87.8,35.3t28.4,108.9V831.7H164V593.4c0-14.9-1.6-25.2-4.7-31s-8.8-8.6-16.8-8.6q-23.6,0-23.5,39.6v47.4Z" transform="translate(-9.3 -168.3)"/><path class="b" d="M675.8,451.2v274q0,51.3-27.4,83.7t-71,32.3q-52.5,0-80.2-53.8-17.1,29-36.6,41.4t-48.2,12.4c-30.4,0-53.6-10.8-69.8-32.3s-24.2-52.6-24.2-93.1V451.2H418.8V698.8c0,12.2.9,20.3,2.6,24.2s5.2,5.9,10.5,5.9c9.9,0,14.9-9.4,14.9-28.2V451.2H547.2V698.8c0,11.9.9,19.8,2.7,23.9s5.4,6.2,10.7,6.2c9.8,0,14.8-10.1,14.8-30.1V451.2Z" transform="translate(-9.3 -168.3)"/><path class="b" d="M846.5,700.1V600.4c20.3,0,30.5-8.8,30.5-26.3,0-15.9-7.8-23.9-23.3-23.9s-23.5,10.9-23.5,32.9V831.7H729.8V594.8c0-24.6,2.1-44.7,6.5-60.4a126.7,126.7,0,0,1,66.9-79.6c17.9-8.7,36.2-13.1,55.2-13.1q51.5,0,86.5,39.1t35,96.7q0,55.9-31.4,90.9c-19.2,21.3-48,32-86.6,32Z" transform="translate(-9.3 -168.3)"/></svg>